<svg width="165" height="120" viewBox="0 0 753 660" fill="none" xmlns="http://www.w3.org/2000/svg">
<path d="M285 163C298.667 163 311.167 166.333 322.5 173C333.5 179.667 342.333 188.5 349 199.5C355.667 210.833 359 223.333 359 237L359 449C359 462.667 355.667 475 349 486C342.333 497.333 333.5 506.333 322.5 513C311.167 519.667 298.667 523 285 523H-2.43187e-05V445L265 445C270.333 445 274.5 443.667 277.5 441C280.167 438.333 281.5 434.167 281.5 428.5L281.5 257.5C281.5 252.167 280.167 248 277.5 245C274.5 242.333 270.333 241 265 241L-2.43187e-05 241V163L285 163Z" fill="black"/>
<path d="M322.5 173L330.793 159.317L330.703 159.262L330.612 159.209L322.5 173ZM349 199.5L362.791 191.388L362.738 191.297L362.683 191.207L349 199.5ZM349 486L335.317 477.707L335.262 477.797L335.209 477.888L349 486ZM322.5 513L330.612 526.791L330.703 526.738L330.793 526.683L322.5 513ZM-2.43187e-05 523H-16V539H-2.43187e-05V523ZM-2.43187e-05 445L-2.43187e-05 429H-16L-16 445H-2.43187e-05ZM277.5 441L288.13 452.959L288.481 452.646L288.814 452.314L277.5 441ZM277.5 245L289.459 234.37L288.833 233.667L288.13 233.041L277.5 245ZM-2.43187e-05 241H-16V257H-2.43187e-05V241ZM-2.43187e-05 163V147H-16V163H-2.43187e-05ZM285 179C295.931 179 305.612 181.629 314.388 186.791L330.612 159.209C316.721 151.038 301.402 147 285 147V179ZM314.207 186.683C323.002 192.014 329.986 198.998 335.317 207.793L362.683 191.207C354.68 178.002 343.998 167.32 330.793 159.317L314.207 186.683ZM335.209 207.612C340.371 216.388 343 226.069 343 237H375C375 220.598 370.962 205.279 362.791 191.388L335.209 207.612ZM343 237L343 449H375L375 237H343ZM343 449C343 459.933 340.372 469.366 335.317 477.707L362.683 494.293C370.961 480.634 375 465.4 375 449H343ZM335.209 477.888C329.854 486.99 322.89 494.055 314.207 499.317L330.793 526.683C344.11 518.612 354.812 507.676 362.791 494.112L335.209 477.888ZM314.388 499.209C305.612 504.371 295.931 507 285 507V539C301.402 539 316.721 534.962 330.612 526.791L314.388 499.209ZM285 507L-2.43187e-05 507V539H285V507ZM16 523V445H-16V523H16ZM-2.43187e-05 461L265 461V429L-2.43187e-05 429L-2.43187e-05 461ZM265 461C272.943 461 281.351 458.984 288.13 452.959L266.87 429.041C267.183 428.763 267.399 428.713 267.249 428.761C267.043 428.827 266.361 429 265 429V461ZM288.814 452.314C295.699 445.429 297.5 436.304 297.5 428.5H265.5C265.5 429.297 265.453 429.894 265.395 430.319C265.337 430.744 265.275 430.955 265.261 430.999C265.249 431.038 265.29 430.894 265.442 430.636C265.598 430.37 265.84 430.033 266.186 429.686L288.814 452.314ZM297.5 428.5L297.5 257.5H265.5L265.5 428.5H297.5ZM297.5 257.5C297.5 249.557 295.484 241.149 289.459 234.37L265.541 255.63C265.263 255.317 265.213 255.101 265.261 255.251C265.327 255.457 265.5 256.139 265.5 257.5H297.5ZM288.13 233.041C281.351 227.016 272.943 225 265 225V257C266.361 257 267.043 257.173 267.249 257.239C267.399 257.287 267.183 257.237 266.87 256.959L288.13 233.041ZM265 225L-2.43187e-05 225V257L265 257V225ZM16 241V163H-16V241H16ZM-2.43187e-05 179L285 179V147H-2.43187e-05V179Z" fill="black"/>
<path d="M468 522C454.333 522 441.833 518.667 430.5 512C419.5 505.333 410.667 496.5 404 485.5C397.333 474.167 394 461.667 394 448V236C394 222.333 397.333 210 404 199C410.667 187.667 419.5 178.667 430.5 172C441.833 165.333 454.333 162 468 162H753V240H488C482.667 240 478.5 241.333 475.5 244C472.833 246.667 471.5 250.833 471.5 256.5V427.5C471.5 432.833 472.833 437 475.5 440C478.5 442.667 482.667 444 488 444H753V522H468Z" fill="black"/>
<path d="M430.5 512L422.207 525.683L422.297 525.738L422.388 525.791L430.5 512ZM404 485.5L390.209 493.612L390.262 493.703L390.317 493.793L404 485.5ZM404 199L417.683 207.293L417.738 207.203L417.791 207.112L404 199ZM430.5 172L422.388 158.209L422.297 158.262L422.207 158.317L430.5 172ZM753 162H769V146H753V162ZM753 240V256H769V240H753ZM475.5 244L464.87 232.041L464.519 232.354L464.186 232.686L475.5 244ZM475.5 440L463.541 450.63L464.167 451.333L464.87 451.959L475.5 440ZM753 444H769V428H753V444ZM753 522V538H769V522H753ZM468 506C457.069 506 447.388 503.371 438.612 498.209L422.388 525.791C436.279 533.962 451.598 538 468 538V506ZM438.793 498.317C429.998 492.986 423.014 486.002 417.683 477.207L390.317 493.793C398.32 506.998 409.002 517.68 422.207 525.683L438.793 498.317ZM417.791 477.388C412.629 468.612 410 458.931 410 448H378C378 464.402 382.038 479.721 390.209 493.612L417.791 477.388ZM410 448V236H378V448H410ZM410 236C410 225.067 412.628 215.634 417.683 207.293L390.317 190.707C382.039 204.366 378 219.6 378 236H410ZM417.791 207.112C423.146 198.01 430.11 190.945 438.793 185.683L422.207 158.317C408.89 166.388 398.188 177.324 390.209 190.888L417.791 207.112ZM438.612 185.791C447.388 180.629 457.069 178 468 178V146C451.598 146 436.279 150.038 422.388 158.209L438.612 185.791ZM468 178H753V146H468V178ZM737 162V240H769V162H737ZM753 224H488V256H753V224ZM488 224C480.057 224 471.649 226.016 464.87 232.041L486.13 255.959C485.817 256.237 485.601 256.287 485.751 256.239C485.957 256.173 486.639 256 488 256V224ZM464.186 232.686C457.301 239.571 455.5 248.696 455.5 256.5H487.5C487.5 255.703 487.547 255.106 487.605 254.681C487.663 254.256 487.725 254.045 487.739 254.001C487.751 253.962 487.71 254.106 487.558 254.364C487.402 254.63 487.16 254.967 486.814 255.314L464.186 232.686ZM455.5 256.5V427.5H487.5V256.5H455.5ZM455.5 427.5C455.5 435.443 457.516 443.851 463.541 450.63L487.459 429.37C487.737 429.683 487.787 429.899 487.739 429.749C487.673 429.543 487.5 428.861 487.5 427.5H455.5ZM464.87 451.959C471.649 457.984 480.057 460 488 460V428C486.639 428 485.957 427.827 485.751 427.761C485.601 427.713 485.817 427.763 486.13 428.041L464.87 451.959ZM488 460H753V428H488V460ZM737 444V522H769V444H737ZM753 506H468V538H753V506Z" fill="black"/>
<path d="M20.544 609C18.1933 609 16.0433 608.427 14.094 607.28C12.202 606.133 10.6827 604.614 9.536 602.722C8.38933 600.773 7.816 598.623 7.816 596.272V559.808C7.816 557.457 8.38933 555.336 9.536 553.444C10.6827 551.495 12.202 549.947 14.094 548.8C16.0433 547.653 18.1933 547.08 20.544 547.08H69.564V560.496H23.984C23.0667 560.496 22.35 560.725 21.834 561.184C21.3753 561.643 21.146 562.359 21.146 563.334V592.746C21.146 593.663 21.3753 594.38 21.834 594.896C22.35 595.355 23.0667 595.584 23.984 595.584H69.564V609H20.544ZM98.1388 609V585.866L69.5008 547.08H85.4108L104.847 571.504L124.197 547.08H140.279L111.555 585.952V609H98.1388ZM141.196 609V547.08H187.98C190.273 547.08 192.366 547.653 194.258 548.8C196.207 549.947 197.755 551.495 198.902 553.444C200.106 555.336 200.708 557.457 200.708 559.808V571.418C200.708 572.163 200.651 572.88 200.536 573.568C200.479 574.199 200.335 574.801 200.106 575.374C200.966 576.463 201.683 577.725 202.256 579.158C202.829 580.591 203.116 582.025 203.116 583.458V596.272C203.116 598.565 202.514 600.687 201.31 602.636C200.163 604.585 198.615 606.133 196.666 607.28C194.774 608.427 192.653 609 190.302 609H141.196ZM154.526 595.584H189.614V584.232H154.526V595.584ZM154.526 570.816H187.206V560.496H154.526V570.816ZM209.225 609V547.08H266.415V560.496H222.727V571.332H257.901V584.748H222.727V595.584H266.415V609H209.225ZM319.53 609L301.556 587.586H319.014L333.29 604.442V609H319.53ZM271.456 609V547.166H320.562C322.913 547.166 325.034 547.739 326.926 548.886C328.876 550.033 330.424 551.581 331.57 553.53C332.774 555.479 333.376 557.601 333.376 559.894V575.89C333.376 578.183 332.774 580.305 331.57 582.254C330.424 584.203 328.876 585.751 326.926 586.898C325.034 588.045 322.913 588.618 320.562 588.618L284.786 588.704V609H271.456ZM284.786 575.202H319.874V560.496H284.786V575.202ZM375.986 609C373.635 609 371.485 608.427 369.536 607.28C367.644 606.133 366.125 604.614 364.978 602.722C363.831 600.773 363.258 598.623 363.258 596.272V559.808C363.258 557.457 363.831 555.336 364.978 553.444C366.125 551.495 367.644 549.947 369.536 548.8C371.485 547.653 373.635 547.08 375.986 547.08H425.006V560.496H379.426C378.509 560.496 377.792 560.725 377.276 561.184C376.817 561.643 376.588 562.359 376.588 563.334V592.746C376.588 593.663 376.817 594.38 377.276 594.896C377.792 595.355 378.509 595.584 379.426 595.584H425.006V609H375.986ZM430.705 609V547.08H487.895V560.496H444.207V571.332H479.381V584.748H444.207V595.584H487.895V609H430.705ZM492.937 609V547.08H506.697L541.355 588.36V547.08H554.857V609H541.097L506.267 567.548V609H492.937ZM582.207 609V560.496H557.955V547.08H619.875V560.496H595.623V609H582.207ZM623.039 609V547.08H680.229V560.496H636.541V571.332H671.715V584.748H636.541V595.584H680.229V609H623.039ZM733.345 609L715.371 587.586H732.829L747.105 604.442V609H733.345ZM685.271 609V547.166H734.377C736.728 547.166 738.849 547.739 740.741 548.886C742.69 550.033 744.238 551.581 745.385 553.53C746.589 555.479 747.191 557.601 747.191 559.894V575.89C747.191 578.183 746.589 580.305 745.385 582.254C744.238 584.203 742.69 585.751 740.741 586.898C738.849 588.045 736.728 588.618 734.377 588.618L698.601 588.704V609H685.271ZM698.601 575.202H733.689V560.496H698.601V575.202Z" fill="black"/>
<path d="M84.75 660C83.4833 660 82.3167 659.683 81.25 659.05C80.2167 658.417 79.3833 657.583 78.75 656.55C78.1167 655.483 77.8 654.317 77.8 653.05V630.95C77.8 629.683 78.1167 628.533 78.75 627.5C79.3833 626.433 80.2167 625.583 81.25 624.95C82.3167 624.317 83.4833 624 84.75 624H113.7V630.65H86.15C85.6167 630.65 85.1833 630.8 84.85 631.1C84.55 631.4 84.4 631.833 84.4 632.4V651.6C84.4 652.133 84.55 652.567 84.85 652.9C85.1833 653.2 85.6167 653.35 86.15 653.35H113.7V660H84.75ZM128.763 660C127.497 660 126.33 659.683 125.263 659.05C124.23 658.417 123.397 657.583 122.763 656.55C122.13 655.483 121.813 654.317 121.813 653.05V630.95C121.813 629.683 122.13 628.533 122.763 627.5C123.397 626.433 124.23 625.583 125.263 624.95C126.33 624.317 127.497 624 128.763 624H150.863C152.13 624 153.28 624.317 154.313 624.95C155.38 625.583 156.23 626.433 156.863 627.5C157.497 628.533 157.813 629.683 157.813 630.95V653.05C157.813 654.317 157.497 655.483 156.863 656.55C156.23 657.583 155.38 658.417 154.313 659.05C153.28 659.683 152.13 660 150.863 660H128.763ZM129.013 653.35H150.513C150.68 653.35 150.83 653.3 150.963 653.2C151.097 653.067 151.163 652.917 151.163 652.75V631.25C151.163 631.083 151.097 630.95 150.963 630.85C150.83 630.717 150.68 630.65 150.513 630.65H129.013C128.847 630.65 128.697 630.717 128.563 630.85C128.463 630.95 128.413 631.083 128.413 631.25V652.75C128.413 652.917 128.463 653.067 128.563 653.2C128.697 653.3 128.847 653.35 129.013 653.35ZM166.32 660V624H173.57L186.62 639.55L199.62 624H206.92V660H200.27V633.6L186.62 649.85L172.92 633.65V660H166.32ZM215.706 660V624.05H244.706C245.973 624.05 247.14 624.367 248.206 625C249.273 625.633 250.123 626.483 250.756 627.55C251.39 628.583 251.706 629.733 251.706 631V640.7C251.706 641.967 251.39 643.133 250.756 644.2C250.123 645.267 249.273 646.117 248.206 646.75C247.14 647.35 245.973 647.65 244.706 647.65L222.306 647.7V660H215.706ZM222.906 641H244.406C244.573 641 244.723 640.95 244.856 640.85C244.99 640.75 245.056 640.617 245.056 640.45V631.25C245.056 631.083 244.99 630.95 244.856 630.85C244.723 630.717 244.573 630.65 244.406 630.65H222.906C222.74 630.65 222.59 630.717 222.456 630.85C222.356 630.95 222.306 631.083 222.306 631.25V640.45C222.306 640.617 222.356 640.75 222.456 640.85C222.59 640.95 222.74 641 222.906 641ZM265.107 660C263.84 660 262.674 659.683 261.607 659.05C260.574 658.417 259.74 657.583 259.107 656.55C258.474 655.483 258.157 654.317 258.157 653.05V624H264.757V652.75C264.757 652.917 264.807 653.067 264.907 653.2C265.04 653.3 265.19 653.35 265.357 653.35H286.857C287.024 653.35 287.174 653.3 287.307 653.2C287.44 653.067 287.507 652.917 287.507 652.75V624H294.157V653.05C294.157 654.317 293.84 655.483 293.207 656.55C292.574 657.583 291.724 658.417 290.657 659.05C289.624 659.683 288.474 660 287.207 660H265.107ZM315.563 660V630.65H300.863V624H336.863V630.65H322.213V660H315.563ZM343.703 660V624H376.853V630.65H350.353V638.65H371.653V645.35H350.353V653.35H376.853V660H343.703ZM413.584 660L402.734 647.05H411.384L420.784 658.15V660H413.584ZM384.884 660V624.05H413.884C415.151 624.05 416.317 624.367 417.384 625C418.451 625.633 419.301 626.483 419.934 627.55C420.567 628.583 420.884 629.733 420.884 631V640.7C420.884 641.967 420.567 643.133 419.934 644.2C419.301 645.267 418.451 646.117 417.384 646.75C416.317 647.35 415.151 647.65 413.884 647.65L391.484 647.7V660H384.884ZM392.084 641H413.584C413.751 641 413.901 640.95 414.034 640.85C414.167 640.75 414.234 640.617 414.234 640.45V631.25C414.234 631.083 414.167 630.95 414.034 630.85C413.901 630.717 413.751 630.65 413.584 630.65H392.084C391.917 630.65 391.767 630.717 391.634 630.85C391.534 630.95 391.484 631.083 391.484 631.25V640.45C391.484 640.617 391.534 640.75 391.634 640.85C391.767 640.95 391.917 641 392.084 641ZM454.227 660C452.96 660 451.794 659.683 450.727 659.05C449.694 658.417 448.86 657.583 448.227 656.55C447.594 655.483 447.277 654.317 447.277 653.05V650.3H453.877V652.75C453.877 652.917 453.927 653.067 454.027 653.2C454.16 653.3 454.31 653.35 454.477 653.35H476.027C476.194 653.35 476.327 653.3 476.427 653.2C476.56 653.067 476.627 652.917 476.627 652.75V645.9C476.627 645.733 476.56 645.6 476.427 645.5C476.327 645.4 476.194 645.35 476.027 645.35H454.227C452.96 645.35 451.794 645.033 450.727 644.4C449.694 643.767 448.86 642.933 448.227 641.9C447.594 640.833 447.277 639.65 447.277 638.35V630.95C447.277 629.683 447.594 628.533 448.227 627.5C448.86 626.433 449.694 625.583 450.727 624.95C451.794 624.317 452.96 624 454.227 624H476.327C477.594 624 478.744 624.317 479.777 624.95C480.844 625.583 481.694 626.433 482.327 627.5C482.96 628.533 483.277 629.683 483.277 630.95V633.7H476.627V631.25C476.627 631.083 476.56 630.95 476.427 630.85C476.327 630.717 476.194 630.65 476.027 630.65H454.477C454.31 630.65 454.16 630.717 454.027 630.85C453.927 630.95 453.877 631.083 453.877 631.25V638.1C453.877 638.267 453.927 638.4 454.027 638.5C454.16 638.6 454.31 638.65 454.477 638.65H476.327C477.594 638.65 478.744 638.967 479.777 639.6C480.844 640.233 481.694 641.083 482.327 642.15C482.96 643.183 483.277 644.35 483.277 645.65V653.05C483.277 654.317 482.96 655.483 482.327 656.55C481.694 657.583 480.844 658.417 479.777 659.05C478.744 659.683 477.594 660 476.327 660H454.227ZM504.636 660V630.65H489.936V624H525.936V630.65H511.286V660H504.636ZM539.525 660C538.258 660 537.092 659.683 536.025 659.05C534.992 658.417 534.158 657.583 533.525 656.55C532.892 655.483 532.575 654.317 532.575 653.05V630.95C532.575 629.683 532.892 628.533 533.525 627.5C534.158 626.433 534.992 625.583 536.025 624.95C537.092 624.317 538.258 624 539.525 624H561.625C562.892 624 564.042 624.317 565.075 624.95C566.142 625.583 566.992 626.433 567.625 627.5C568.258 628.533 568.575 629.683 568.575 630.95V653.05C568.575 654.317 568.258 655.483 567.625 656.55C566.992 657.583 566.142 658.417 565.075 659.05C564.042 659.683 562.892 660 561.625 660H539.525ZM539.775 653.35H561.275C561.442 653.35 561.592 653.3 561.725 653.2C561.858 653.067 561.925 652.917 561.925 652.75V631.25C561.925 631.083 561.858 630.95 561.725 630.85C561.592 630.717 561.442 630.65 561.275 630.65H539.775C539.608 630.65 539.458 630.717 539.325 630.85C539.225 630.95 539.175 631.083 539.175 631.25V652.75C539.175 652.917 539.225 653.067 539.325 653.2C539.458 653.3 539.608 653.35 539.775 653.35ZM605.781 660L594.931 647.05H603.581L612.981 658.15V660H605.781ZM577.081 660V624.05H606.081C607.348 624.05 608.515 624.367 609.581 625C610.648 625.633 611.498 626.483 612.131 627.55C612.765 628.583 613.081 629.733 613.081 631V640.7C613.081 641.967 612.765 643.133 612.131 644.2C611.498 645.267 610.648 646.117 609.581 646.75C608.515 647.35 607.348 647.65 606.081 647.65L583.681 647.7V660H577.081ZM584.281 641H605.781C605.948 641 606.098 640.95 606.231 640.85C606.365 640.75 606.431 640.617 606.431 640.45V631.25C606.431 631.083 606.365 630.95 606.231 630.85C606.098 630.717 605.948 630.65 605.781 630.65H584.281C584.115 630.65 583.965 630.717 583.831 630.85C583.731 630.95 583.681 631.083 583.681 631.25V640.45C583.681 640.617 583.731 640.75 583.831 640.85C583.965 640.95 584.115 641 584.281 641ZM621.441 660V624H654.591V630.65H628.091V638.65H649.391V645.35H628.091V653.35H654.591V660H621.441Z" fill="black"/>
<path d="M384.594 39.6491L378 21.1572L371.407 39.6491L351.818 94.5867L288 94.5867L264.747 94.5867L284.136 107.423L335.189 141.225L315.784 195.649L308.731 215.43L326.241 203.837L378 169.569L429.759 203.837L447.27 215.43L440.217 195.649L420.811 141.225L471.864 107.423L491.253 94.5867L468 94.5867L404.182 94.5867L384.594 39.6491Z" fill="black" stroke="#FEFCFC" stroke-width="14"/>
</svg>
